<svg width="31" height="32" viewBox="0 0 31 32" fill="none" xmlns="http://www.w3.org/2000/svg">
<path fill-rule="evenodd" clip-rule="evenodd" d="M16.0382 0.961452C7.73915 0.767637 0.869519 7.48432 0.671468 15.9874C0.513315 22.784 4.67756 28.6373 10.5939 30.8134C11.3361 30.9835 11.6202 30.5064 11.6298 30.0992C11.6385 29.7425 11.6419 28.52 11.6714 27.247C7.47488 28.0661 6.67029 25.2964 6.67029 25.2964C6.04013 23.4986 5.05738 23.0175 5.05738 23.0175C3.71306 22.0437 5.17907 22.0777 5.17907 22.0777C6.69196 22.2149 7.45335 23.7104 7.45335 23.7104C8.74031 26.0836 10.9171 25.4715 11.7966 25.0848C11.9433 24.0946 12.3571 23.4173 12.789 23.045C9.4676 22.6105 5.99505 21.2051 6.13236 15.2996C6.17144 13.6194 6.79964 12.258 7.76864 11.2115C7.6287 10.8256 7.14377 9.23476 8.01282 7.14162C8.01282 7.14162 9.29035 6.76355 12.1006 8.81622C13.3323 8.50824 14.5975 8.36644 15.8653 8.39456C17.1322 8.4238 18.4201 8.63183 19.6055 8.99043C22.5089 7.07235 23.7672 7.50865 23.7672 7.50865C24.5381 9.64077 23.9783 11.2074 23.8211 11.5853C24.7648 12.6777 25.3045 14.0654 25.2654 15.7456C25.1281 21.6511 21.5937 22.8676 18.2308 23.1716C18.7661 23.6682 19.2161 24.5954 19.1822 26.0463C19.1344 28.1084 19.0711 29.7633 19.0598 30.2715C19.0502 30.6787 19.3118 31.1695 20.0609 31.0345C26.0717 29.1359 30.5046 23.4832 30.6638 16.6865C30.8861 8.18447 24.313 1.15421 16.0382 0.961452Z" fill="#ffffff"/>
</svg>
