<svg width="885" height="1021" viewBox="0 0 885 1021" fill="none" xmlns="http://www.w3.org/2000/svg">
<mask id="path-1-outside-1_210_7" maskUnits="userSpaceOnUse" x="0" y="0" width="885" height="1021" fill="black">
<rect fill="white" width="885" height="1021"/>
<path d="M470.5 583L471 956L485.5 964L811 776.5C811 776.5 809 747.5 822 726C835 704.5 856 699.5 856 699.5V325.5L840 315.5L517 501C517 501 521 532.5 505.5 553C490 573.5 470.5 583 470.5 583Z"/>
<path d="M486 451.5L812.5 262.5V247.5L484 57.5C484 57.5 469 70 440 70C411 70 396.5 57.5 396.5 57.5L75.5 244L76.5 265.5L396 451.5C396 451.5 416 438 441 438C466 438 486 451.5 486 451.5Z"/>
<path d="M72.5 775.5L398 963.5L412.5 955.5V581C412.5 581 392.455 575 377 550C361.545 525 370 503 370 503L48.5 317.5L28.5 328.5V698.5C28.5 698.5 53.5 711 64 729.5C74.5 748 72.5 775.5 72.5 775.5Z"/>
</mask>
<path d="M470.5 583L471 956L485.5 964L811 776.5C811 776.5 809 747.5 822 726C835 704.5 856 699.5 856 699.5V325.5L840 315.5L517 501C517 501 521 532.5 505.5 553C490 573.5 470.5 583 470.5 583Z" fill="#80FFD9" fill-opacity="0.57"/>
<path d="M486 451.5L812.5 262.5V247.5L484 57.5C484 57.5 469 70 440 70C411 70 396.5 57.5 396.5 57.5L75.5 244L76.5 265.5L396 451.5C396 451.5 416 438 441 438C466 438 486 451.5 486 451.5Z" fill="#80FFD9" fill-opacity="0.57"/>
<path d="M72.5 775.5L398 963.5L412.5 955.5V581C412.5 581 392.455 575 377 550C361.545 525 370 503 370 503L48.5 317.5L28.5 328.5V698.5C28.5 698.5 53.5 711 64 729.5C74.5 748 72.5 775.5 72.5 775.5Z" fill="#80FFD9" fill-opacity="0.57"/>
<path d="M1 257L0.623469 256.351L0.25 256.568V257H1ZM442 1L442.376 0.351182L442 0.132915L441.623 0.351367L442 1ZM883.5 257H884.25V256.568L883.876 256.351L883.5 257ZM883.5 764.5L883.876 765.149L884.25 764.933V764.5H883.5ZM442 1020L441.624 1020.65L442 1020.87L442.376 1020.65L442 1020ZM1 764.5H0.25V764.932L0.62402 765.149L1 764.5ZM1.37653 257.649L442.377 1.64863L441.623 0.351367L0.623469 256.351L1.37653 257.649ZM441.624 1.64882L883.124 257.649L883.876 256.351L442.376 0.351182L441.624 1.64882ZM882.75 257V764.5H884.25V257H882.75ZM883.124 763.851L441.624 1019.35L442.376 1020.65L883.876 765.149L883.124 763.851ZM442.376 1019.35L1.37598 763.851L0.62402 765.149L441.624 1020.65L442.376 1019.35ZM1.75 764.5V257H0.25V764.5H1.75ZM0.625676 257.65L441.626 511.65L442.374 510.35L1.37432 256.35L0.625676 257.65ZM442.374 511.65L883.874 257.65L883.126 256.35L441.626 510.35L442.374 511.65ZM441.25 511V1020H442.75V511H441.25ZM28.5 698.5H27V699.427L27.8292 699.842L28.5 698.5ZM72.5 775.5L71.004 775.391L70.9358 776.329L71.7498 776.799L72.5 775.5ZM398 963.5L397.25 964.799L397.983 965.222L398.725 964.813L398 963.5ZM412.5 955.5L413.225 956.813L414 956.386V955.5H412.5ZM412.5 581H414V579.883L412.93 579.563L412.5 581ZM370 503L371.4 503.538L371.86 502.341L370.75 501.701L370 503ZM48.5 317.5L49.2496 316.201L48.5176 315.778L47.7771 316.186L48.5 317.5ZM28.5 328.5L27.7771 327.186L27 327.613V328.5H28.5ZM470.5 583L469.843 581.652L468.999 582.063L469 583.002L470.5 583ZM471 956L469.5 956.002L469.501 956.886L470.275 957.313L471 956ZM485.5 964L484.775 965.313L485.516 965.722L486.249 965.3L485.5 964ZM811 776.5L811.749 777.8L812.561 777.332L812.496 776.397L811 776.5ZM856 699.5L856.347 700.959L857.5 700.685V699.5H856ZM856 325.5H857.5V324.669L856.795 324.228L856 325.5ZM840 315.5L840.795 314.228L840.033 313.752L839.253 314.199L840 315.5ZM517 501L516.253 499.699L515.386 500.197L515.512 501.189L517 501ZM486 451.5L485.161 452.743L485.939 453.269L486.751 452.798L486 451.5ZM812.5 262.5L813.251 263.798L814 263.365V262.5H812.5ZM812.5 247.5H814V246.635L813.251 246.202L812.5 247.5ZM484 57.5L484.751 56.2015L483.844 55.6771L483.04 56.3477L484 57.5ZM396.5 57.5L397.479 56.3639L396.67 55.6663L395.746 56.203L396.5 57.5ZM75.5 244L74.7465 242.703L73.9593 243.16L74.0016 244.07L75.5 244ZM76.5 265.5L75.0016 265.57L75.0396 266.385L75.7453 266.796L76.5 265.5ZM396 451.5L395.245 452.796L396.059 453.27L396.839 452.743L396 451.5ZM71.7498 776.799L397.25 964.799L398.75 962.201L73.2502 774.201L71.7498 776.799ZM398.725 964.813L413.225 956.813L411.775 954.187L397.275 962.187L398.725 964.813ZM414 955.5V581H411V955.5H414ZM412.5 581C412.93 579.563 412.931 579.563 412.931 579.563C412.931 579.563 412.932 579.563 412.932 579.564C412.932 579.564 412.932 579.564 412.932 579.563C412.931 579.563 412.929 579.563 412.926 579.562C412.92 579.56 412.909 579.556 412.893 579.552C412.862 579.542 412.812 579.526 412.744 579.503C412.608 579.458 412.4 579.386 412.127 579.286C411.579 579.084 410.768 578.765 409.741 578.304C407.688 577.381 404.773 575.888 401.377 573.627C394.589 569.105 385.875 561.505 378.276 549.211L375.724 550.789C383.579 563.495 392.616 571.395 399.714 576.123C403.262 578.487 406.324 580.057 408.512 581.04C409.605 581.532 410.481 581.877 411.09 582.101C411.395 582.213 411.633 582.295 411.798 582.35C411.881 582.377 411.945 582.398 411.991 582.413C412.013 582.42 412.032 582.425 412.045 582.429C412.051 582.431 412.057 582.433 412.061 582.434C412.063 582.435 412.065 582.435 412.066 582.436C412.067 582.436 412.068 582.436 412.068 582.437C412.069 582.437 412.07 582.437 412.5 581ZM378.276 549.211C370.726 536.998 369.027 525.544 369.204 517.157C369.293 512.959 369.851 509.528 370.384 507.157C370.65 505.972 370.91 505.053 371.1 504.437C371.195 504.129 371.273 503.897 371.326 503.746C371.352 503.67 371.372 503.615 371.385 503.58C371.391 503.562 371.396 503.55 371.398 503.543C371.4 503.54 371.4 503.537 371.401 503.537C371.401 503.536 371.401 503.536 371.401 503.536C371.401 503.536 371.401 503.537 371.401 503.537C371.4 503.537 371.4 503.538 370 503C368.6 502.462 368.6 502.463 368.599 502.464C368.599 502.464 368.599 502.465 368.598 502.466C368.598 502.467 368.597 502.469 368.596 502.471C368.595 502.476 368.592 502.482 368.59 502.489C368.584 502.503 368.577 502.523 368.568 502.548C368.549 502.598 368.524 502.669 368.492 502.761C368.428 502.944 368.34 503.209 368.234 503.551C368.022 504.236 367.742 505.231 367.457 506.499C366.887 509.034 366.298 512.666 366.205 517.093C366.018 525.956 367.82 538.002 375.724 550.789L378.276 549.211ZM370.75 501.701L49.2496 316.201L47.7504 318.799L369.25 504.299L370.75 501.701ZM47.7771 316.186L27.7771 327.186L29.2229 329.814L49.2229 318.814L47.7771 316.186ZM27 328.5V698.5H30V328.5H27ZM28.5 698.5C27.8292 699.842 27.829 699.842 27.8289 699.842C27.829 699.842 27.829 699.842 27.8292 699.842C27.8296 699.842 27.8304 699.842 27.8315 699.843C27.8338 699.844 27.8376 699.846 27.8429 699.849C27.8534 699.854 27.8699 699.862 27.8921 699.873C27.9367 699.896 28.0044 699.931 28.094 699.977C28.2733 700.07 28.5402 700.21 28.8853 700.395C29.5756 700.765 30.5778 701.317 31.8153 702.038C34.2912 703.481 37.7026 705.595 41.4368 708.28C48.9364 713.673 57.6044 721.27 62.6955 730.24L65.3045 728.76C59.8956 719.23 50.8136 711.327 43.1882 705.845C39.3599 703.092 35.865 700.926 33.3254 699.446C32.055 698.706 31.0221 698.137 30.3041 697.752C29.9451 697.559 29.6647 697.412 29.4727 697.313C29.3766 697.263 29.3026 697.225 29.2519 697.199C29.2266 697.186 29.207 697.177 29.1935 697.17C29.1867 697.166 29.1814 697.164 29.1776 697.162C29.1757 697.161 29.1742 697.16 29.1731 697.159C29.1725 697.159 29.1719 697.159 29.1717 697.159C29.1712 697.159 29.1708 697.158 28.5 698.5ZM62.6955 730.24C67.7885 739.214 69.8878 750.461 70.6933 759.57C71.0945 764.106 71.1716 768.072 71.1485 770.902C71.1369 772.316 71.1003 773.445 71.0668 774.217C71.0501 774.603 71.0341 774.9 71.0225 775.099C71.0166 775.198 71.0119 775.273 71.0087 775.322C71.007 775.347 71.0058 775.365 71.005 775.376C71.0046 775.382 71.0043 775.386 71.0041 775.389C71.004 775.39 71.004 775.391 71.004 775.391C71.0039 775.391 71.0039 775.391 71.0039 775.392C71.0039 775.391 71.004 775.391 72.5 775.5C73.996 775.609 73.9961 775.608 73.9961 775.608C73.9961 775.608 73.9962 775.607 73.9962 775.606C73.9963 775.605 73.9964 775.603 73.9966 775.601C73.9969 775.597 73.9973 775.591 73.9978 775.584C73.9989 775.569 74.0003 775.547 74.0022 775.519C74.0059 775.463 74.0111 775.381 74.0173 775.275C74.0298 775.061 74.0466 774.749 74.064 774.347C74.0989 773.543 74.1365 772.379 74.1484 770.926C74.1721 768.022 74.093 763.957 73.6817 759.305C72.8622 750.039 70.7115 738.286 65.3045 728.76L62.6955 730.24ZM469 583.002L469.5 956.002L472.5 955.998L472 582.998L469 583.002ZM470.275 957.313L484.775 965.313L486.225 962.687L471.725 954.687L470.275 957.313ZM486.249 965.3L811.749 777.8L810.251 775.2L484.751 962.7L486.249 965.3ZM811 776.5C812.496 776.397 812.496 776.397 812.496 776.397C812.496 776.397 812.496 776.397 812.496 776.397C812.496 776.397 812.496 776.396 812.496 776.394C812.496 776.392 812.496 776.388 812.495 776.382C812.495 776.37 812.493 776.351 812.492 776.325C812.489 776.273 812.484 776.195 812.479 776.09C812.468 775.881 812.453 775.568 812.439 775.159C812.41 774.343 812.383 773.146 812.391 771.64C812.406 768.628 812.56 764.386 813.115 759.481C814.229 749.646 816.942 737.263 823.284 726.776L820.716 725.224C814.058 736.237 811.271 749.104 810.135 759.144C809.565 764.176 809.406 768.528 809.391 771.625C809.383 773.174 809.41 774.411 809.44 775.265C809.455 775.691 809.471 776.022 809.483 776.248C809.489 776.361 809.494 776.448 809.497 776.507C809.499 776.537 809.501 776.56 809.502 776.576C809.502 776.584 809.503 776.59 809.503 776.595C809.503 776.597 809.503 776.599 809.503 776.6C809.503 776.601 809.503 776.602 809.503 776.602C809.504 776.603 809.504 776.603 811 776.5ZM823.284 726.776C829.622 716.294 837.91 709.833 844.62 705.989C847.975 704.068 850.93 702.804 853.037 702.024C854.09 701.634 854.93 701.364 855.501 701.194C855.786 701.109 856.004 701.049 856.148 701.011C856.219 700.992 856.272 700.978 856.306 700.969C856.323 700.965 856.335 700.962 856.342 700.961C856.345 700.96 856.347 700.959 856.348 700.959C856.349 700.959 856.349 700.959 856.349 700.959C856.349 700.959 856.348 700.959 856.348 700.959C856.348 700.959 856.347 700.959 856 699.5C855.653 698.041 855.652 698.041 855.651 698.041C855.651 698.041 855.65 698.041 855.649 698.042C855.648 698.042 855.646 698.042 855.644 698.043C855.64 698.044 855.634 698.045 855.628 698.047C855.614 698.05 855.596 698.055 855.573 698.061C855.526 698.072 855.46 698.089 855.374 698.112C855.204 698.158 854.958 698.226 854.644 698.319C854.015 698.507 853.113 698.796 851.994 699.211C849.758 700.039 846.65 701.37 843.13 703.386C836.09 707.417 827.378 714.206 820.716 725.224L823.284 726.776ZM857.5 699.5V325.5H854.5V699.5H857.5ZM856.795 324.228L840.795 314.228L839.205 316.772L855.205 326.772L856.795 324.228ZM839.253 314.199L516.253 499.699L517.747 502.301L840.747 316.801L839.253 314.199ZM517 501C515.512 501.189 515.512 501.189 515.512 501.188C515.512 501.189 515.512 501.189 515.512 501.189C515.512 501.189 515.512 501.19 515.512 501.191C515.513 501.194 515.513 501.199 515.514 501.205C515.516 501.218 515.518 501.239 515.521 501.266C515.528 501.322 515.538 501.407 515.55 501.52C515.574 501.746 515.609 502.085 515.647 502.525C515.725 503.405 515.819 504.692 515.884 506.303C516.015 509.527 516.03 514.038 515.569 519.178C514.642 529.495 511.809 542.169 504.304 552.095L506.696 553.905C514.691 543.331 517.608 530.005 518.556 519.447C519.032 514.149 519.016 509.505 518.882 506.181C518.814 504.519 518.717 503.185 518.636 502.262C518.595 501.801 518.559 501.443 518.532 501.197C518.519 501.075 518.508 500.98 518.501 500.915C518.497 500.883 518.494 500.858 518.492 500.841C518.491 500.832 518.49 500.825 518.489 500.82C518.489 500.818 518.489 500.816 518.488 500.814C518.488 500.813 518.488 500.813 518.488 500.812C518.488 500.812 518.488 500.811 517 501ZM504.304 552.095C496.666 562.197 488.035 569.597 481.307 574.473C477.946 576.909 475.066 578.711 473.032 579.901C472.015 580.495 471.21 580.937 470.664 581.228C470.39 581.373 470.181 581.481 470.043 581.551C469.973 581.587 469.922 581.613 469.888 581.629C469.871 581.638 469.859 581.644 469.852 581.647C469.848 581.649 469.845 581.65 469.844 581.651C469.843 581.652 469.843 581.652 469.843 581.652C469.842 581.652 469.843 581.652 469.843 581.652C469.843 581.652 469.843 581.652 470.5 583C471.157 584.348 471.157 584.348 471.158 584.348C471.158 584.348 471.159 584.348 471.159 584.347C471.16 584.347 471.162 584.346 471.163 584.345C471.167 584.344 471.171 584.342 471.177 584.339C471.188 584.333 471.204 584.325 471.225 584.315C471.266 584.294 471.326 584.265 471.403 584.225C471.557 584.147 471.783 584.03 472.073 583.876C472.653 583.567 473.493 583.106 474.546 582.49C476.653 581.258 479.617 579.403 483.068 576.902C489.965 571.903 498.834 564.303 506.696 553.905L504.304 552.095ZM486.751 452.798L813.251 263.798L811.749 261.202L485.249 450.202L486.751 452.798ZM814 262.5V247.5H811V262.5H814ZM813.251 246.202L484.751 56.2015L483.249 58.7985L811.749 248.798L813.251 246.202ZM484 57.5C483.04 56.3477 483.04 56.3473 483.041 56.3469C483.041 56.3469 483.041 56.3466 483.041 56.3465C483.041 56.3462 483.041 56.3462 483.041 56.3464C483.041 56.3467 483.04 56.3478 483.037 56.3496C483.033 56.3532 483.025 56.3598 483.013 56.3692C482.99 56.3881 482.952 56.4183 482.9 56.4593C482.795 56.5412 482.633 56.6657 482.413 56.8269C481.972 57.1492 481.302 57.6177 480.403 58.1841C478.606 59.317 475.896 60.8408 472.29 62.3689C465.08 65.4237 454.279 68.5 440 68.5V71.5C454.721 71.5 465.92 68.3263 473.46 65.1311C477.229 63.5342 480.082 61.933 482.003 60.7221C482.964 60.1167 483.692 59.6087 484.185 59.2474C484.432 59.0667 484.62 58.9227 484.749 58.8215C484.814 58.7709 484.864 58.731 484.899 58.7025C484.917 58.6883 484.93 58.6769 484.941 58.6685C484.946 58.6643 484.95 58.6609 484.953 58.6582C484.955 58.6568 484.956 58.6557 484.957 58.6547C484.958 58.6542 484.959 58.6536 484.959 58.6534C484.96 58.6528 484.96 58.6523 484 57.5ZM440 68.5C425.722 68.5 415.048 65.4239 407.969 62.3725C404.427 60.846 401.782 59.3242 400.033 58.1935C399.159 57.6282 398.509 57.1607 398.083 56.8396C397.87 56.679 397.713 56.5551 397.613 56.4738C397.562 56.4331 397.526 56.4031 397.504 56.3845C397.493 56.3753 397.485 56.3688 397.481 56.3654C397.479 56.3636 397.478 56.3626 397.478 56.3624C397.478 56.3622 397.478 56.3623 397.478 56.3626C397.478 56.3627 397.478 56.363 397.478 56.3631C397.479 56.3635 397.479 56.3639 396.5 57.5C395.521 58.6361 395.521 58.6366 395.522 58.6372C395.522 58.6375 395.523 58.6381 395.523 58.6386C395.525 58.6396 395.526 58.6408 395.528 58.6422C395.531 58.645 395.535 58.6485 395.54 58.6528C395.55 58.6613 395.564 58.6728 395.581 58.6872C395.615 58.7159 395.664 58.7561 395.727 58.807C395.853 58.9088 396.036 59.0534 396.276 59.2346C396.757 59.5971 397.466 60.1062 398.404 60.7128C400.281 61.9258 403.073 63.529 406.781 65.1275C414.202 68.3261 425.278 71.5 440 71.5V68.5ZM395.746 56.203L74.7465 242.703L76.2535 245.297L397.254 58.797L395.746 56.203ZM74.0016 244.07L75.0016 265.57L77.9984 265.43L76.9984 243.93L74.0016 244.07ZM75.7453 266.796L395.245 452.796L396.755 450.204L77.2547 264.204L75.7453 266.796ZM396 451.5C396.839 452.743 396.839 452.743 396.839 452.744C396.839 452.744 396.839 452.744 396.839 452.744C396.839 452.744 396.839 452.743 396.84 452.743C396.842 452.742 396.844 452.74 396.848 452.737C396.856 452.732 396.869 452.724 396.886 452.712C396.921 452.689 396.974 452.654 397.046 452.607C397.191 452.514 397.409 452.374 397.698 452.195C398.276 451.837 399.136 451.321 400.247 450.7C402.471 449.458 405.7 447.797 409.7 446.135C417.712 442.807 428.76 439.5 441 439.5V436.5C428.24 436.5 416.788 439.943 408.55 443.365C404.425 445.078 401.092 446.792 398.784 448.081C397.63 448.726 396.732 449.265 396.118 449.645C395.811 449.835 395.576 449.985 395.415 450.09C395.335 450.142 395.273 450.182 395.23 450.21C395.209 450.224 395.193 450.235 395.181 450.243C395.175 450.247 395.171 450.25 395.167 450.252C395.166 450.253 395.164 450.254 395.163 450.255C395.163 450.256 395.162 450.256 395.162 450.256C395.161 450.256 395.161 450.257 396 451.5ZM441 439.5C453.24 439.5 464.288 442.807 472.3 446.135C476.3 447.797 479.529 449.458 481.753 450.7C482.864 451.321 483.724 451.837 484.302 452.195C484.591 452.374 484.809 452.514 484.954 452.607C485.026 452.654 485.079 452.689 485.114 452.712C485.131 452.724 485.144 452.732 485.152 452.737C485.156 452.74 485.158 452.742 485.16 452.743C485.161 452.743 485.161 452.744 485.161 452.744C485.161 452.744 485.161 452.744 485.161 452.744C485.161 452.743 485.161 452.743 486 451.5C486.839 450.257 486.839 450.256 486.838 450.256C486.838 450.256 486.837 450.256 486.837 450.255C486.836 450.254 486.834 450.253 486.833 450.252C486.829 450.25 486.825 450.247 486.819 450.243C486.807 450.235 486.791 450.224 486.77 450.21C486.727 450.182 486.665 450.142 486.585 450.09C486.424 449.985 486.189 449.835 485.882 449.645C485.268 449.265 484.37 448.726 483.216 448.081C480.908 446.792 477.575 445.078 473.45 443.365C465.212 439.943 453.76 436.5 441 436.5V439.5Z" fill="url(#paint0_linear_210_7)" mask="url(#path-1-outside-1_210_7)"/>
<defs>
<linearGradient id="paint0_linear_210_7" x1="442.25" y1="1" x2="442.25" y2="1020" gradientUnits="userSpaceOnUse">
<stop stop-color="#80FFD9" stop-opacity="0.57"/>
<stop offset="1" stop-color="white"/>
</linearGradient>
</defs>
</svg>
